<?xml version="1.0" encoding="UTF-8"?>
<svg version="1.1" xmlns="http://www.w3.org/2000/svg" width="1024" height="1024">
<path d="M0 0 C337.92 0 675.84 0 1024 0 C1024 337.92 1024 675.84 1024 1024 C686.08 1024 348.16 1024 0 1024 C0 686.08 0 348.16 0 0 Z " fill="#FDFEFE" transform="translate(0,0)"/>
<path d="M0 0 C11.653125 -0.061875 23.30625 -0.12375 35.3125 -0.1875 C40.80064331 -0.22846802 40.80064331 -0.22846802 46.3996582 -0.27026367 C50.92028809 -0.28381348 50.92028809 -0.28381348 53.04679871 -0.28633118 C54.50967662 -0.29089202 55.97254435 -0.30134621 57.43534851 -0.31672668 C71.3557966 -0.45558007 86.5840108 0.9563997 97.20703125 11.109375 C104.57834804 20.11014077 106.1234935 28.44589071 105 40 C103.04099343 49.15369142 98.34736085 56.12498762 90.6875 61.5 C88 63 88 63 86 63 C86 63.66 86 64.32 86 65 C86.804375 65.04125 87.60875 65.0825 88.4375 65.125 C96.74659995 67.16583157 103.11977264 73.1570725 108 80 C112.50189208 88.01071973 113.50165843 97.58530631 111.05859375 106.39453125 C107.0812317 117.30422339 102.41338703 122.73866353 92 128 C80.19190946 133.07809075 67.80541297 133.28384095 55.17578125 133.1953125 C53.75728513 133.19236418 52.33878682 133.19032861 50.92028809 133.18920898 C45.71765842 133.178813 40.51507563 133.15089087 35.3125 133.125 C17.8328125 133.063125 17.8328125 133.063125 0 133 C0 89.11 0 45.22 0 0 Z " fill="#203967" transform="translate(254,451)"/>
<path d="M0 0 C36.96 0 73.92 0 112 0 C112 7.26 112 14.52 112 22 C97.81 22 83.62 22 69 22 C69 56.65 69 91.3 69 127 C68.34 127 67.68 127 67 127 C67 125.02 67 123.04 67 121 C66.01 121.495 66.01 121.495 65 122 C63.45976004 122.06950541 61.91665012 122.08452357 60.375 122.0625 C59.55773437 122.05347656 58.74046875 122.04445313 57.8984375 122.03515625 C57.27195312 122.02355469 56.64546875 122.01195312 56 122 C56 124.31 56 126.62 56 129 C51.09748502 129.980503 47.19057759 130 42 130 C42 94.36 42 58.72 42 22 C28.14 22 14.28 22 0 22 C0 14.74 0 7.48 0 0 Z " fill="#223C69" transform="translate(427,451)"/>
<path d="M0 0 C-0.66420134 2.8848573 -1.54685216 5.57380549 -2.62890625 8.328125 C-2.94150391 9.12734375 -3.25410156 9.9265625 -3.57617188 10.75 C-4.0644043 11.9875 -4.0644043 11.9875 -4.5625 13.25 C-4.89185547 14.09046875 -5.22121094 14.9309375 -5.56054688 15.796875 C-6.37152195 17.86544911 -7.18474132 19.93311122 -8 22 C-10.76010083 20.92490454 -13.46651219 19.78805372 -16.1640625 18.5625 C-26.78565949 13.76719662 -36.06717744 11.86404153 -47.6875 11.625 C-48.48373779 11.59873535 -49.27997559 11.5724707 -50.1003418 11.54541016 C-55.85525939 11.52985794 -60.19752792 12.77241916 -65 16 C-67.56104016 18.68596895 -68.87045382 20.47243463 -69.1875 24.2109375 C-68.97793545 28.1533706 -68.35690827 30.49342052 -66.0625 33.75 C-58.17024145 39.54839404 -49.66480005 42.13823274 -40.25 44.4375 C-23.26565196 48.82790626 -7.61318059 53.52761628 2.0390625 69.3125 C2.35617187 69.869375 2.67328125 70.42625 3 71 C2.67 71.66 2.34 72.32 2 73 C-3.445 72.505 -3.445 72.505 -9 72 C-8.505 78.435 -8.505 78.435 -8 85 C-12.29 86.65 -16.58 88.3 -21 90 C-21.37125 88.618125 -21.7425 87.23625 -22.125 85.8125 C-24.08837342 80.08375289 -26.98576493 77.60975278 -32.1796875 74.8359375 C-39.3638899 71.53163076 -46.89127944 69.57647351 -54.5 67.5 C-83.98573302 59.43276209 -83.98573302 59.43276209 -92.00390625 46.78125 C-96.96680511 37.9064191 -97.24308319 28.20988252 -95.53125 18.28125 C-92.60741483 8.39590251 -86.06847027 0.64108216 -77.34375 -4.59375 C-51.9555282 -18.22321644 -24.39371311 -12.35046936 0 0 Z " fill="#223C69" transform="translate(644,461)"/>
<path d="M0 0 C8.58 0 17.16 0 26 0 C26 33.33 26 66.66 26 101 C17.42 101 8.84 101 0 101 C0 67.67 0 34.34 0 0 Z " fill="#139FD5" transform="translate(384,483)"/>
<path d="M0 0 C5.78084876 -0.09237042 11.55908617 -0.17184284 17.34008789 -0.21972656 C19.30209074 -0.23970918 21.26403505 -0.26690484 23.22583008 -0.30175781 C45.01865779 -0.6789307 45.01865779 -0.6789307 53 4 C55.5625 6.5 55.5625 6.5 57 9 C57.52787109 9.90105469 57.52787109 9.90105469 58.06640625 10.8203125 C59.87038471 15.03211159 59.50823546 19.51710261 59 24 C56.58204575 29.44039706 52.35726516 32.60734243 47 35 C41.79750263 36.13710871 36.73957849 36.12921482 31.4453125 36.09765625 C30.54376434 36.0962413 29.64221619 36.09482635 28.71334839 36.09336853 C25.850531 36.0877974 22.98779352 36.07525026 20.125 36.0625 C18.17708447 36.05748127 16.2291677 36.05291901 14.28125 36.04882812 C9.52077822 36.03869083 4.76047794 36.01910986 0 36 C0 24.12 0 12.24 0 0 Z " fill="#FAFAFB" transform="translate(280,527)"/>
<path d="M0 0 C0.66 0.33 1.32 0.66 2 1 C-12.29854167 12.73854076 -27.04253108 23.60788972 -43 33 C-43.86713623 33.52142578 -44.73427246 34.04285156 -45.62768555 34.58007812 C-52.64662148 38.75587906 -59.76608421 42.46909718 -67.1875 45.875 C-68.30680908 46.38893311 -69.42611816 46.90286621 -70.5793457 47.43237305 C-82.15348303 52.65440444 -93.95961478 56.98981777 -106 61 C-106.93312012 61.31807617 -107.86624023 61.63615234 -108.82763672 61.96386719 C-125.57049049 67.62867576 -142.62182055 70.96010306 -160 74 C-161.01433105 74.17764893 -162.02866211 74.35529785 -163.07373047 74.53833008 C-170.94281813 75.88306419 -178.83883201 76.9965998 -186.75 78.0625 C-187.99265625 78.23587891 -189.2353125 78.40925781 -190.515625 78.58789062 C-206.95675982 80.80438659 -223.1816034 81.16225041 -239.74536133 81.13037109 C-243.06010498 81.12500388 -246.37471352 81.13035132 -249.68945312 81.13671875 C-260.83525989 81.13984529 -271.89328954 80.99011999 -283 80 C-283 79.67 -283 79.34 -283 79 C-282.15969238 78.98541748 -281.31938477 78.97083496 -280.45361328 78.95581055 C-244.99162213 78.28145606 -209.93609951 76.26178228 -174.93359375 70.3046875 C-174.2409845 70.18811295 -173.54837524 70.07153839 -172.83477783 69.95143127 C-169.6391722 69.59143118 -169.6391722 69.59143118 -167 68 C-168.98 67.505 -168.98 67.505 -171 67 C-171 63.7 -171 60.4 -171 57 C-168.03 56.34 -165.06 55.68 -162 55 C-163.65 54.67 -165.3 54.34 -167 54 C-165.68938409 49.76570244 -164.05643741 45.92592596 -162 42 C-156.52067211 43.54545146 -151.88570819 46.15543212 -147 49 C-147 49.66 -147 50.32 -147 51 C-147.66 51 -148.32 51 -149 51 C-148.67 53.64 -148.34 56.28 -148 59 C-145.03 59 -142.06 59 -139 59 C-139 57.35 -139 55.7 -139 54 C-138.67 54.99 -138.34 55.98 -138 57 C-136.02 57 -134.04 57 -132 57 C-135 59 -135 59 -138 60 C-138.33 60.99 -138.66 61.98 -139 63 C-88.77696643 54.25345236 -41.61277283 28.32061995 0 0 Z " fill="#73B9CD" transform="translate(714,506)"/>
<path d="M0 0 C4.96269402 -0.06924689 9.92368062 -0.12886389 14.88647461 -0.16479492 C16.57110302 -0.17978874 18.25569303 -0.20019073 19.94018555 -0.22631836 C40.50791184 -0.53711956 40.50791184 -0.53711956 48.4375 5.3125 C51.7674866 8.80492498 52.96627595 11.32134707 53.02734375 16.171875 C52.684293 21.41439409 51.61589831 25.01324032 48 29 C41.65325771 32.99230564 36.06079112 34.14607713 28.61328125 34.09765625 C27.79627243 34.0962413 26.97926361 34.09482635 26.13749695 34.09336853 C23.52912732 34.08777294 20.92084366 34.07522129 18.3125 34.0625 C16.54362103 34.05748443 14.77474072 34.05292162 13.00585938 34.04882812 C8.67051318 34.03865603 4.33535278 34.01907979 0 34 C0 22.78 0 11.56 0 0 Z " fill="#F8F9FA" transform="translate(280,472)"/>
<path d="M0 0 C10.56 0 21.12 0 32 0 C32 9.9 32 19.8 32 30 C21.44 30 10.88 30 0 30 C0 20.1 0 10.2 0 0 Z " fill="#1BA6DB" transform="translate(381,438)"/>
<path d="M0 0 C9.57 0 19.14 0 29 0 C29 9.24 29 18.48 29 28 C19.43 28.33 9.86 28.66 0 29 C0 19.43 0 9.86 0 0 Z " fill="#49C2DE" transform="translate(714,473)"/>
<path d="M0 0 C-0.71682861 7.64617186 -6.22198444 13.98305301 -11.5703125 19.109375 C-22.73085781 27.79378647 -35.89702342 29.39118413 -49.5625 29.375 C-50.69478027 29.37628906 -51.82706055 29.37757813 -52.99365234 29.37890625 C-62.4363251 29.26095661 -71.00929794 27.80489869 -80 25 C-77.4644783 22.4644783 -75.7448749 22.33099395 -72.25 21.59765625 C-71.08339844 21.34693359 -69.91679688 21.09621094 -68.71484375 20.83789062 C-67.48894531 20.58201172 -66.26304687 20.32613281 -65 20.0625 C-53.37529162 17.61090292 -42.24093621 14.49305891 -31.01953125 10.63085938 C-26.21122245 9 -26.21122245 9 -24 9 C-24 11.64 -24 14.28 -24 17 C-20.7 17 -17.4 17 -14 17 C-14 13.7 -14 10.4 -14 7 C-15.32 6.67 -16.64 6.34 -18 6 C-15.56495491 4.9936345 -13.12729136 3.99473587 -10.6875 3 C-9.99720703 2.71382812 -9.30691406 2.42765625 -8.59570312 2.1328125 C-5.58454326 0.91089256 -3.28113016 0 0 0 Z " fill="#26416C" transform="translate(647,557)"/>
<path d="M0 0 C-0.33 1.32 -0.66 2.64 -1 4 C-3.64566363 4.62572527 -6.29152493 5.25059417 -8.9375 5.875 C-9.67291016 6.04902344 -10.40832031 6.22304688 -11.16601562 6.40234375 C-11.90400391 6.57636719 -12.64199219 6.75039063 -13.40234375 6.9296875 C-14.39995728 7.16534424 -14.39995728 7.16534424 -15.41772461 7.40576172 C-16.26987549 7.60186035 -17.12202637 7.79795898 -18 8 C-18.65364029 8.15450119 -19.30728058 8.30900238 -19.98072815 8.46818542 C-25.24794392 9.68432223 -30.48662401 10.57417291 -35.84765625 11.25390625 C-36.6626207 11.35968491 -37.47758514 11.46546356 -38.31724548 11.57444763 C-40.03211254 11.79576671 -41.74725207 12.01498393 -43.46264648 12.23217773 C-46.03267928 12.55871115 -48.6012842 12.89511109 -51.16992188 13.23242188 C-68.73065841 15.50496411 -86.05159048 16.16442528 -103.74536133 16.13037109 C-107.06010498 16.12500388 -110.37471352 16.13035132 -113.68945312 16.13671875 C-124.83525989 16.13984529 -135.89328954 15.99011999 -147 15 C-147 14.67 -147 14.34 -147 14 C-146.15969238 13.98541748 -145.31938477 13.97083496 -144.45361328 13.95581055 C-101.43894348 13.13783235 -57.99840258 10.93715502 -15.95166016 1.11743164 C-10.60173091 -0.0914779 -5.47323451 -0.16440781 0 0 Z " fill="#607D9C" transform="translate(578,571)"/>
<path d="M0 0 C5.47932789 1.54545146 10.11429181 4.15543212 15 7 C15 7.66 15 8.32 15 9 C14.34 9 13.68 9 13 9 C13.33 11.64 13.66 14.28 14 17 C16.97 17 19.94 17 23 17 C23 15.35 23 13.7 23 12 C23.33 12.99 23.66 13.98 24 15 C25.98 15 27.96 15 30 15 C26.55116439 17.29922374 23.21283304 18.14875463 19.25 19.125 C18.5590625 19.30675781 17.868125 19.48851562 17.15625 19.67578125 C12.64870094 20.80266852 8.64410462 21.18236013 4 21 C3.67 18.03 3.34 15.06 3 12 C0.69 11.67 -1.62 11.34 -4 11 C-3.39301257 6.87248551 -1.96189209 3.6678852 0 0 Z " fill="#2E4877" transform="translate(552,548)"/>
<path d="M0 0 C7.875 0.875 7.875 0.875 9 2 C9.07179964 3.51928038 9.08392007 5.04167482 9.0625 6.5625 C9.05347656 7.38878906 9.04445313 8.21507812 9.03515625 9.06640625 C9.02355469 9.70449219 9.01195312 10.34257813 9 11 C10.12019531 10.7834375 11.24039063 10.566875 12.39453125 10.34375 C13.86715999 10.06235597 15.33981776 9.78111389 16.8125 9.5 C17.55048828 9.35691406 18.28847656 9.21382812 19.04882812 9.06640625 C22.07794391 8.49073719 24.909196 8 28 8 C28.495 9.98 28.495 9.98 29 12 C25.05087541 12.88150781 21.09989794 13.75409834 17.14697266 14.6184082 C15.80202946 14.91380203 14.45762144 15.21164347 13.11376953 15.51196289 C11.18403696 15.94277035 9.25219714 16.36410447 7.3203125 16.78515625 C6.15773926 17.04176025 4.99516602 17.29836426 3.79736328 17.56274414 C1 18 1 18 -1 17 C-0.67 16.67 -0.34 16.34 0 16 C-1.32 15.67 -2.64 15.34 -4 15 C-4 11.7 -4 8.4 -4 5 C-1.03 4.34 1.94 3.68 5 3 C3.35 2.67 1.7 2.34 0 2 C0 1.34 0 0.68 0 0 Z " fill="#EBF0F4" transform="translate(547,558)"/>
<path d="M0 0 C0.99 0.495 0.99 0.495 2 1 C-12.32510357 12.76034703 -27.09981517 23.46429359 -43 33 C-44.56457681 33.99674753 -46.12739096 34.99627393 -47.6875 36 C-51 38 -51 38 -53 38 C-53.33 37.34 -53.66 36.68 -54 36 C-58.36324082 37.30897224 -62.12992993 39.05375536 -66.0703125 41.29296875 C-68.45355721 42.16618189 -69.61098062 41.69175425 -72 41 C-71.22100342 40.63350342 -70.44200684 40.26700684 -69.6394043 39.8894043 C-45.11154527 28.30916244 -22.43086626 15.26589062 0 0 Z " fill="#84E2E4" transform="translate(714,506)"/>
<path d="M0 0 C4.29 0 8.58 0 13 0 C13 4.29 13 8.58 13 13 C8.71 13 4.42 13 0 13 C0 8.71 0 4.42 0 0 Z " fill="#95EBEF" transform="translate(708,526)"/>
<path d="M0 0 C-0.6145713 6.55542719 -4.68290256 11.98335839 -9.1875 16.5625 C-12.32123532 19.13465886 -14.44470063 19.26412875 -18.4375 18.875 C-19.96417222 18.61562499 -21.4880409 18.33463884 -23 18 C-23 17.67 -23 17.34 -23 17 C-20.03 17 -17.06 17 -14 17 C-14 13.7 -14 10.4 -14 7 C-15.32 6.67 -16.64 6.34 -18 6 C-15.56495491 4.9936345 -13.12729136 3.99473587 -10.6875 3 C-9.65206055 2.57074219 -9.65206055 2.57074219 -8.59570312 2.1328125 C-5.58454326 0.91089256 -3.28113016 0 0 0 Z " fill="#2F4471" transform="translate(647,557)"/>
<path d="M0 0 C-0.66 1.32 -1.32 2.64 -2 4 C-0.68 4 0.64 4 2 4 C2 7.3 2 10.6 2 14 C-1.3 14 -4.6 14 -8 14 C-8.30216904 3.87733732 -8.30216904 3.87733732 -6 0 C-3 -1 -3 -1 0 0 Z " fill="#D5DFE8" transform="translate(631,560)"/>
<path d="M0 0 C3.3 0 6.6 0 10 0 C10 3.63 10 7.26 10 11 C6.7 11 3.4 11 0 11 C0 7.37 0 3.74 0 0 Z " fill="#52BADC" transform="translate(690,499)"/>
<path d="M0 0 C0.33 3.63 0.66 7.26 1 11 C-2.63 11 -6.26 11 -10 11 C-10 7.7 -10 4.4 -10 1 C-6.56484998 0.37542727 -3.50935186 0 0 0 Z " fill="#53799E" transform="translate(553,562)"/>
<path d="M0 0 C0.3671875 2.26171875 0.3671875 2.26171875 0 5 C-2.5546875 7.01953125 -2.5546875 7.01953125 -5.875 8.8125 C-6.96554687 9.41707031 -8.05609375 10.02164063 -9.1796875 10.64453125 C-12 12 -12 12 -14 12 C-14.33 11.34 -14.66 10.68 -15 10 C-19.36324082 11.30897224 -23.12992993 13.05375536 -27.0703125 15.29296875 C-29.45355721 16.16618189 -30.61098062 15.69175425 -33 15 C-32.13197754 14.58113525 -31.26395508 14.16227051 -30.36962891 13.73071289 C-27.15292645 12.17844562 -23.93631299 10.62599401 -20.71972656 9.07348633 C-19.32684726 8.40123537 -17.93394374 7.72903459 -16.54101562 7.05688477 C-14.54030103 6.09144022 -12.53967323 5.12581601 -10.5390625 4.16015625 C-9.60303696 3.70854881 -9.60303696 3.70854881 -8.64810181 3.24781799 C-1.92041629 0 -1.92041629 0 0 0 Z " fill="#76D9E1" transform="translate(675,532)"/>
<path d="M0 0 C0.66 0.33 1.32 0.66 2 1 C1.67 1.33 1.34 1.66 1 2 C0.63239269 4.32817964 0.29758419 6.6618385 0 9 C-0.33 8.34 -0.66 7.68 -1 7 C-2.13179687 7.433125 -3.26359375 7.86625 -4.4296875 8.3125 C-5.9113927 8.87517286 -7.39316714 9.43766343 -8.875 10 C-9.62136719 10.28617188 -10.36773438 10.57234375 -11.13671875 10.8671875 C-16.7734375 13 -16.7734375 13 -19 13 C-18.99609375 10.734375 -18.99609375 10.734375 -18 8 C-15.53346046 6.3250837 -12.83514326 5.31879766 -10.0625 4.25 C-9.32064453 3.94707031 -8.57878906 3.64414062 -7.81445312 3.33203125 C-5.88094777 2.54320313 -3.94086375 1.77054569 -2 1 C-1.34 0.67 -0.68 0.34 0 0 Z " fill="#E9F3F6" transform="translate(648,550)"/>
<path d="M0 0 C2.97 0 5.94 0 9 0 C9 3.3 9 6.6 9 10 C6.03 10 3.06 10 0 10 C0 6.7 0 3.4 0 0 Z " fill="#E1E8F0" transform="translate(619,519)"/>
<path d="M0 0 C2.97 0 5.94 0 9 0 C9 2.97 9 5.94 9 9 C6.03 9 3.06 9 0 9 C0 6.03 0 3.06 0 0 Z " fill="#4EAFD5" transform="translate(669,510)"/>
<path d="M0 0 C2.97 0 5.94 0 9 0 C9 2.97 9 5.94 9 9 C6.03 9 3.06 9 0 9 C0 6.03 0 3.06 0 0 Z " fill="#49C5E0" transform="translate(758,466)"/>
<path d="M0 0 C0.33 1.98 0.66 3.96 1 6 C0.01 5.67 -0.98 5.34 -2 5 C-2.33 5.99 -2.66 6.98 -3 8 C-5.64 8 -8.28 8 -11 8 C-11 5.69 -11 3.38 -11 1 C-7.26513121 0.4254048 -3.78706732 0 0 0 Z " fill="#4AA4BF" transform="translate(648,534)"/>
<path d="M0 0 C1.65 0 3.3 0 5 0 C4.27087654 0.55020561 4.27087654 0.55020561 3.52702332 1.11152649 C1.34774075 3.80665063 1.60141668 5.77578185 1.56762695 9.21557617 C1.54783279 10.4966777 1.52803864 11.77777924 1.50764465 13.09770203 C1.50087486 14.49612278 1.49442799 15.89454512 1.48828125 17.29296875 C1.47143646 18.72359261 1.45328649 20.15420164 1.43388367 21.58479309 C1.38635518 25.34780242 1.35656459 29.11075169 1.33044434 32.8739624 C1.30065295 36.71492377 1.25411782 40.55567807 1.20898438 44.39648438 C1.122919 51.93088691 1.05558847 59.46530445 1 67 C0.67 67 0.34 67 0 67 C0 44.89 0 22.78 0 0 Z " fill="#162F5E" transform="translate(254,452)"/>
<path d="M0 0 C0.928125 0.639375 1.85625 1.27875 2.8125 1.9375 C5.84219943 4.08622093 5.84219943 4.08622093 9 5 C8.67 6.65 8.34 8.3 8 10 C6.52168779 10.19412181 5.04230684 10.38012131 3.5625 10.5625 C2.73878906 10.66691406 1.91507813 10.77132812 1.06640625 10.87890625 C0.38449219 10.91886719 -0.29742188 10.95882812 -1 11 C-2 10 -2 10 -2.09765625 8.15234375 C-2.06510417 6.1015625 -2.03255208 4.05078125 -2 2 C-1.34 2 -0.68 2 0 2 C0 1.34 0 0.68 0 0 Z " fill="#E6ECF1" transform="translate(567,555)"/>
<path d="M0 0 C2.31 0 4.62 0 7 0 C7 2.97 7 5.94 7 9 C4.69 9 2.38 9 0 9 C0 6.03 0 3.06 0 0 Z " fill="#8AEDF6" transform="translate(755,439)"/>
<path d="M0 0 C2.31 0 4.62 0 7 0 C7 2.64 7 5.28 7 8 C4.69 8 2.38 8 0 8 C0 5.36 0 2.72 0 0 Z " fill="#79D6E5" transform="translate(668,548)"/>
<path d="M0 0 C2.31 0 4.62 0 7 0 C7 2.64 7 5.28 7 8 C4.69 8 2.38 8 0 8 C0 5.36 0 2.72 0 0 Z " fill="#3BA3CC" transform="translate(649,516)"/>
<path d="M0 0 C3.63 0 7.26 0 11 0 C9 2 9 2 5.375 2.125 C4.26125 2.08375 3.1475 2.0425 2 2 C2 4.31 2 6.62 2 9 C4.31 9 6.62 9 9 9 C9 9.33 9 9.66 9 10 C7.35 10 5.7 10 4 10 C4 10.66 4 11.32 4 12 C3.01 12.33 2.02 12.66 1 13 C0 12 0 12 -0.09765625 9.27734375 C-0.08605469 8.17519531 -0.07445312 7.07304688 -0.0625 5.9375 C-0.05347656 4.83277344 -0.04445313 3.72804688 -0.03515625 2.58984375 C-0.02355469 1.73519531 -0.01195312 0.88054688 0 0 Z " fill="#F3F6F9" transform="translate(635,533)"/>
<path d="M0 0 C0.33 0 0.66 0 1 0 C1 1.65 1 3.3 1 5 C1.66 5 2.32 5 3 5 C3 4.01 3 3.02 3 2 C4.65 2 6.3 2 8 2 C8 3.98 8 5.96 8 8 C2.97703996 9.13016601 -0.97874074 8.77916092 -6 8 C-6 7.67 -6 7.34 -6 7 C-4.02 7 -2.04 7 0 7 C0 4.69 0 2.38 0 0 Z " fill="#93A4BD" transform="translate(483,573)"/>
<path d="M0 0 C2.31 0 4.62 0 7 0 C7 2.31 7 4.62 7 7 C4.69 7 2.38 7 0 7 C0 4.69 0 2.38 0 0 Z " fill="#48B1D8" transform="translate(684,483)"/>
<path d="M0 0 C1.98 0 3.96 0 6 0 C6 2.31 6 4.62 6 7 C4.02 7 2.04 7 0 7 C0 4.69 0 2.38 0 0 Z " fill="#8FEBF1" transform="translate(724,511)"/>
<path d="M0 0 C1.32 0.66 2.64 1.32 4 2 C3.01 2.33 2.02 2.66 1 3 C1 4.65 1 6.3 1 8 C4.465 7.505 4.465 7.505 8 7 C8 7.99 8 8.98 8 10 C5.03 10 2.06 10 -1 10 C-1.125 2.25 -1.125 2.25 0 0 Z " fill="#F7F9F9" transform="translate(625,564)"/>
<path d="M0 0 C0 1.65 0 3.3 0 5 C-0.66 5 -1.32 5 -2 5 C-2.33 6.32 -2.66 7.64 -3 9 C-3 7.02 -3 5.04 -3 3 C-4.65 3 -6.3 3 -8 3 C-8 3.99 -8 4.98 -8 6 C-8.66 6 -9.32 6 -10 6 C-10 4.35 -10 2.7 -10 1 C-2.25 0 -2.25 0 0 0 Z " fill="#EDF0F3" transform="translate(494,572)"/>
<path d="M0 0 C0.86286621 0.54309814 0.86286621 0.54309814 1.74316406 1.09716797 C1.74316406 2.08716797 1.74316406 3.07716797 1.74316406 4.09716797 C1.08316406 4.09716797 0.42316406 4.09716797 -0.25683594 4.09716797 C-0.58683594 3.43716797 -0.91683594 2.77716797 -1.25683594 2.09716797 C-5.62007675 3.40614021 -9.38676587 5.15092333 -13.32714844 7.39013672 C-15.71039315 8.26334986 -16.86781656 7.78892222 -19.25683594 7.09716797 C-16.51929983 5.69625663 -13.76535086 4.33124118 -11.00683594 2.97216797 C-10.22953125 2.57384766 -9.45222656 2.17552734 -8.65136719 1.76513672 C-7.89726563 1.39775391 -7.14316406 1.03037109 -6.36621094 0.65185547 C-5.67495117 0.30622559 -4.98369141 -0.0394043 -4.27148438 -0.39550781 C-2.25683594 -0.90283203 -2.25683594 -0.90283203 0 0 Z " fill="#82D6DD" transform="translate(661.2568359375,539.90283203125)"/>
<path d="M0 0 C1.98 0 3.96 0 6 0 C6 1.98 6 3.96 6 6 C4.02 6 2.04 6 0 6 C0 4.02 0 2.04 0 0 Z " fill="#73C2D8" transform="translate(610,543)"/>
<path d="M0 0 C2.5 1.1875 2.5 1.1875 5 3 C5.3125 5.6875 5.3125 5.6875 5 8 C3.68 8 2.36 8 1 8 C1 6.68 1 5.36 1 4 C0.34 4 -0.32 4 -1 4 C-1 5.98 -1 7.96 -1 10 C-1.33 10 -1.66 10 -2 10 C-2 7.36 -2 4.72 -2 2 C-1.34 2 -0.68 2 0 2 C0 1.34 0 0.68 0 0 Z " fill="#95ACC4" transform="translate(567,555)"/>
<path d="M0 0 C1.66611905 -0.042721 3.33382885 -0.04063832 5 0 C6 1 6 1 6.0625 3.5625 C6.041875 4.366875 6.02125 5.17125 6 6 C4.02 6 2.04 6 0 6 C0 4.02 0 2.04 0 0 Z " fill="#7CCEE2" transform="translate(661,526)"/>
<path d="M0 0 C2.64 0 5.28 0 8 0 C8 1.65 8 3.3 8 5 C7.01 5.495 7.01 5.495 6 6 C6 5.34 6 4.68 6 4 C4.02 4 2.04 4 0 4 C0 2.68 0 1.36 0 0 Z " fill="#F5F8FD" transform="translate(620,519)"/>
<path d="M0 0 C1.65 0 3.3 0 5 0 C5.33 1.98 5.66 3.96 6 6 C4.02 6 2.04 6 0 6 C0 4.02 0 2.04 0 0 Z " fill="#547B9F" transform="translate(526,567)"/>
<path d="M0 0 C7.875 0.875 7.875 0.875 9 2 C9.37004405 7.73568282 9.37004405 7.73568282 9 10 C8.01 10.99 7.02 11.98 6 13 C5.67 9.7 5.34 6.4 5 3 C3.35 2.67 1.7 2.34 0 2 C0 1.34 0 0.68 0 0 Z " fill="#BCC9D9" transform="translate(547,558)"/>
<path d="M0 0 C0.33 1.98 0.66 3.96 1 6 C0.01 5.67 -0.98 5.34 -2 5 C-2.99 6.485 -2.99 6.485 -4 8 C-4 6.02 -4 4.04 -4 2 C-6.31 2 -8.62 2 -11 2 C-11 1.67 -11 1.34 -11 1 C-7.26513121 0.4254048 -3.78706732 0 0 0 Z " fill="#A5BBCE" transform="translate(648,534)"/>
<path d="M0 0 C1.65 0 3.3 0 5 0 C5 1.98 5 3.96 5 6 C3.35 6 1.7 6 0 6 C0 4.02 0 2.04 0 0 Z " fill="#4D89C1" transform="translate(578,553)"/>
<path d="M0 0 C1.65 0 3.3 0 5 0 C5 1.98 5 3.96 5 6 C3.35 6 1.7 6 0 6 C0 4.02 0 2.04 0 0 Z " fill="#36BEE5" transform="translate(706,455)"/>
<path d="M0 0 C0.66 0.33 1.32 0.66 2 1 C-3.445 5.455 -3.445 5.455 -9 10 C-9.99 9.34 -10.98 8.68 -12 8 C-8.04 5.36 -4.08 2.72 0 0 Z " fill="#92EAEC" transform="translate(714,506)"/>
<path d="M0 0 C1.65 0 3.3 0 5 0 C5 1.65 5 3.3 5 5 C3.35 5 1.7 5 0 5 C0 3.35 0 1.7 0 0 Z " fill="#406D9B" transform="translate(508,571)"/>
<path d="M0 0 C0 1.65 0 3.3 0 5 C-1.32 5.33 -2.64 5.66 -4 6 C-3.67 4.68 -3.34 3.36 -3 2 C-3.8971875 2.309375 -3.8971875 2.309375 -4.8125 2.625 C-7 3 -7 3 -10 1 C-6.59437148 0.22157062 -3.49234244 -0.09978121 0 0 Z " fill="#79A2BC" transform="translate(581,569)"/>
<path d="M0 0 C1.65 0 3.3 0 5 0 C5 1.65 5 3.3 5 5 C3.35 5 1.7 5 0 5 C0 3.35 0 1.7 0 0 Z " fill="#6DA9BF" transform="translate(626,567)"/>
<path d="M0 0 C1.65 0 3.3 0 5 0 C5 1.65 5 3.3 5 5 C3.35 5 1.7 5 0 5 C0 3.35 0 1.7 0 0 Z " fill="#5BBAD4" transform="translate(594,545)"/>
<path d="M0 0 C1.65 0 3.3 0 5 0 C5 1.65 5 3.3 5 5 C3.35 5 1.7 5 0 5 C0 3.35 0 1.7 0 0 Z " fill="#90ECEC" transform="translate(686,535)"/>
<path d="M0 0 C1.65 0 3.3 0 5 0 C5 1.65 5 3.3 5 5 C3.35 5 1.7 5 0 5 C0 3.35 0 1.7 0 0 Z " fill="#6FE3F2" transform="translate(744,511)"/>
<path d="M0 0 C1.65 0 3.3 0 5 0 C5 1.65 5 3.3 5 5 C3.35 5 1.7 5 0 5 C0 3.35 0 1.7 0 0 Z " fill="#75E7F1" transform="translate(766,496)"/>
<path d="M0 0 C1.65 0 3.3 0 5 0 C5 1.65 5 3.3 5 5 C3.35 5 1.7 5 0 5 C0 3.35 0 1.7 0 0 Z " fill="#6DD7EA" transform="translate(701,487)"/>
<path d="M0 0 C1.65 0 3.3 0 5 0 C5 1.65 5 3.3 5 5 C3.35 5 1.7 5 0 5 C0 3.35 0 1.7 0 0 Z " fill="#8CF0F7" transform="translate(745,456)"/>
<path d="M0 0 C1.65 0.33 3.3 0.66 5 1 C5 3.31 5 5.62 5 8 C4.34 8 3.68 8 3 8 C3 6.68 3 5.36 3 4 C2.01 3.67 1.02 3.34 0 3 C0 2.01 0 1.02 0 0 Z " fill="#DBE7EC" transform="translate(628,563)"/>
<path d="M0 0 C1.32 0 2.64 0 4 0 C4 1.65 4 3.3 4 5 C2.35 5 0.7 5 -1 5 C-0.67 3.35 -0.34 1.7 0 0 Z " fill="#7DCEE6" transform="translate(669,489)"/>
<path d="M0 0 C4.455 0.99 4.455 0.99 9 2 C9 2.33 9 2.66 9 3 C7.35 3 5.7 3 4 3 C4 3.66 4 4.32 4 5 C3.01 5.33 2.02 5.66 1 6 C0 5 0 5 -0.0625 2.4375 C-0.041875 1.633125 -0.02125 0.82875 0 0 Z " fill="#D9E4EB" transform="translate(635,540)"/>
<path d="M0 0 C0.99 1.32 1.98 2.64 3 4 C2.67 4.66 2.34 5.32 2 6 C-1.63 5.67 -5.26 5.34 -9 5 C-9 4.67 -9 4.34 -9 4 C-6.36 3.67 -3.72 3.34 -1 3 C-0.67 2.01 -0.34 1.02 0 0 Z " fill="#3A537D" transform="translate(644,528)"/>
<path d="M0 0 C0.99 0 1.98 0 3 0 C3.33 1.65 3.66 3.3 4 5 C2.68 5 1.36 5 0 5 C0 3.35 0 1.7 0 0 Z " fill="#44AEC9" transform="translate(611,544)"/>
</svg>
